<svg xmlns="http://www.w3.org/2000/svg" xml:space="preserve" data-id="lg_Cudws9fYDAq9N8UEat" data-version="1" viewBox="660 -0.5 680 152"><g data-padding="20"><g transform="translate(10 2.224)scale(.97054)"><path fill="#ff190d" d="M1084.869 9.08V-.138l-63.358 39.625Zm-63.339 33.826v108.232l76.61-36.078V6.828ZM949.393 9.08V-.138l63.358 39.625Zm63.358 33.826v108.232l-76.61-36.078V6.828Z"/><path d="M726.7 16.65v8.27l3.64-.12q18.12 0 29.19 6.2 11.06 6.2 11.06 17.63 0 8.51-4.25 13.62-3.65 4.5-6.57 5.96l-1.22.73q2.07.36 5.66 2.37 3.59 2 5.9 4.38 2.31 2.37 4.25 6.87 1.95 4.49 1.95 9.97 0 14.47-12.16 22.01t-35.14 7.54q-16.54 0-26.82-8.03-10.27-8.03-10.27-18.24 0-1.7 1.03-2.8 1.04-1.09 2.43-1.09 1.4 0 2.13.73 0 7.54 4.99 13.13 4.98 5.59 13.25 8.27V34.52q-5.35 2.44-8.63 5.78-3.29 3.34-3.29 6.38t.73 5.23q-.73 1.46-3.28 1.46t-4.38-1.82q-1.82-1.83-1.82-4.87 0-5.71 5.71-11.31 5.72-5.59 14.96-8.39v-4.62q0-3.64 1.83-5.53 1.82-1.88 4.49-1.88 2.68 0 4.63 1.7m.48 99.35h1.83q18.11 0 27.11-5.72 9-5.71 9-17.75 0-20.68-27.72-20.68-1.22 0-2.07-1.09t-.85-2.92q0-2.31 2.92-2.31 13.62 0 18.24-5.59 3.77-4.5 3.77-11.31 0-8.63-7.97-13.19-7.96-4.56-20.49-4.69-2.31 0-3.77.37Zm88.83-55.33q10.76 0 17.57 7.17 6.81 7.18 6.81 19.52t-6.38 20.49q-6.39 8.15-17.09 8.15t-17.81-7.36q-7.12-7.36-7.12-20.43t6.63-20.31q6.63-7.23 17.39-7.23m.06 4.74q-3.28 0-5.65 1.64t-2.37 4.68q0 7.79 6.08 14.9t14.47 9.42q.24-4.62.24-7.9 0-12.65-2.68-17.69-2.67-5.05-10.09-5.05m-12.52 22.74q0 12.4 3.1 17.75t10.15 5.35q4.87 0 7.48-2.49t3.59-8.09q-7.91-1.7-14.53-7.17-6.63-5.47-9.67-12.16-.12 2.07-.12 6.81m69.86-27.48q10.76 0 17.57 7.17 6.81 7.18 6.81 19.52t-6.39 20.49q-6.38 8.15-17.08 8.15t-17.82-7.36q-7.11-7.36-7.11-20.43t6.63-20.31q6.62-7.23 17.39-7.23m.06 4.74q-3.29 0-5.66 1.64t-2.37 4.68q0 7.79 6.08 14.9t14.47 9.42q.24-4.62.24-7.9 0-12.65-2.67-17.69-2.68-5.05-10.09-5.05m-12.53 22.74q0 12.4 3.1 17.75t10.16 5.35q4.86 0 7.47-2.49 2.62-2.49 3.59-8.09-7.9-1.7-14.53-7.17t-9.67-12.16q-.12 2.07-.12 6.81m110.17-1.34q2.19 0 2.19 6.45 0 10.09-4.62 16.41-4.62 6.33-12.77 6.33t-13.86-5.42q-5.72-5.41-7.18-13.07-8.14 3.41-17.63 3.89v12.89q-1.21 1.71-4.25 1.71t-4.87-1.89q-1.82-1.88-1.82-5.53V47.66q0-15.81 3.04-22.93 3.04-7.11 11.67-7.11 4.62 0 7.18 3.89 2.55 3.89 2.55 11.07 0 13.01-13.5 26.51v11.67q5.47-10.09 17.51-10.09 7.66 0 12.35 4.01 4.68 4.01 4.68 10.94 0 9.37-8.03 16.42.61 7.42 4.5 13.32 3.89 5.89 9.85 5.89 4.62 0 7.9-5.77 3.29-5.78 3.29-17.94.12-.73 1.82-.73m-30.03-11.06q0-5.11-2.19-7.97t-5.6-2.86q-6.68 0-11.37 7.18-4.68 7.17-4.68 24.56 10.46-1.09 17.15-7.23t6.69-13.68m-23.84-22.5q8.27-10.7 8.27-20.79 0-10.1-4.38-10.1-2.43 0-3.16 5.6-.73 5.59-.73 25.29m174-21.52-.97 39.76q0 19.58 3.77 31.01 4.26 13.5 16.9 13.5 8.76 0 15.02-14.96t6.38-43.41q-21.28-3.16-21.28-18.12 0-5.47 3.47-9 3.46-3.53 9.42-3.53 9.37 0 14.05 6.63t5.29 19.76q5.59.24 9.12.24.73.13.73 1.28 0 1.16-.49 1.76-1.22 1.83-5.84 1.83h-3.64q-1.1 47.42-20.07 59.1-5.47 3.28-12.16 3.28-19.21 0-26.99-21.65-2.68 7.91-7.3 12.96-4.62 5.04-9.24 6.87-4.62 1.82-9.73 1.82-27.12 0-27.12-37.45V62.37q-.12-15.56-2.79-21.64-2.68-6.08-7.66-6.08-11.43 0-11.43 22.86-.25.73-1.34.73-1.1 0-1.7-.49-1.83-1.22-1.83-5.84 0-11.18 4.74-17.02 4.75-5.84 13.02-5.84 11.67 0 15.8 7.42 4.14 7.42 4.14 25.9v21.64q0 17.39 3.83 24.69t11.98 7.3q8.14 0 12.64-6.69 8.88-13.26 8.88-73.08 0-3.53 2.13-5.48 2.13-1.94 4.74-1.94t5.53 2.92m25.42 7.41q0 10.22 15.56 13.14-.36-11.43-2.37-15.81t-5.47-4.38q-3.47 0-5.6 2.07-2.12 2.07-2.12 4.98m59.17 21.53q10.76 0 17.57 7.17 6.81 7.18 6.81 19.52t-6.39 20.49q-6.38 8.15-17.08 8.15t-17.82-7.36q-7.11-7.36-7.11-20.43t6.63-20.31q6.62-7.23 17.39-7.23m.06 4.74q-3.29 0-5.66 1.64t-2.37 4.68q0 7.79 6.08 14.9t14.47 9.42q.24-4.62.24-7.9 0-12.65-2.67-17.69-2.68-5.05-10.09-5.05m-12.53 22.74q0 12.4 3.1 17.75t10.16 5.35q4.86 0 7.47-2.49 2.62-2.49 3.59-8.09-7.9-1.7-14.53-7.17t-9.67-12.16q-.12 2.07-.12 6.81m56.3 6.81v19.33q-1.21 1.71-4.25 1.71t-4.87-1.89q-1.82-1.88-1.82-5.53V62.37q1.21-1.7 4.25-1.7t4.87 1.88q1.82 1.89 1.82 5.54v9.24q6.08-15.08 16.78-15.08 7.66 0 11.19 4.07 3.53 4.08 3.53 9.67 0 3.04-1.83 4.86-1.82 1.83-3.52 1.83-3.17 0-4.14-1.46.73-1.83.73-5.23 0-3.41-2.31-6.2-2.31-2.8-5.59-2.8-5.72 0-10.28 10.4-4.56 10.39-4.56 17.57m71.99-8.15q2.19 0 2.19 6.45 0 9.36-5.11 16.05t-13.01 6.69q-9.85 0-14.71-5.84-4.87-5.84-4.87-16.54V47.9q0-15.69 3.29-22.98 3.28-7.3 11.55-7.3 12.04 0 12.04 16.3 0 12.28-4.81 19.69-4.8 7.42-11 11.07v32.59q0 6.93 2.67 10.46 2.68 3.52 7.3 3.52t8.63-5.59q4.02-5.59 4.02-18.12.24-.73 1.82-.73m-13.86-52.77q0-11.68-5.84-11.68-1.46 0-2.25.98-.79.97-1.4 4.86-1.09 5.96-1.09 31.37 10.58-7.66 10.58-25.53"/><path d="M1289.83 87.42q0-13.98 6.62-20.37 6.63-6.38 17.57-6.38 7.06 0 11.19 2.79V46.93q0-15.32 3.1-22.32 3.1-6.99 11.61-6.99 4.63 0 7.18 3.89t2.55 11.07q0 13.01-13.5 26.51v38.18q0 6.93 2.38 10.46 2.37 3.52 6.26 3.52t7.48-4.8q3.58-4.8 3.58-15.26 0-2.31-.12-3.65.12-.73 1.83-.73 2.19 0 2.19 6.45 0 10.09-4.56 16.41-4.56 6.33-11.74 6.33-13.01 0-17.02-11.43-2.31 5.1-6.33 8.2-4.01 3.1-8.99 3.1-21.28 0-21.28-28.45m22.49 23.71q4.5 0 8.57-4.92 4.08-4.93 4.08-12.59V78.06q0-5.96-2.86-9.31-2.86-3.34-6.69-3.34t-5.96.61q-2.12.61-4.19 2.67-3.89 4.02-3.89 18.73 0 14.83 3.4 19.46 3.04 4.25 7.54 4.25m27.73-88.77q-2.56 0-3.23 5.66-.67 5.65-.67 25.23 8.27-10.7 8.27-20.79 0-10.1-4.37-10.1"/><rect width="376.62" height="72.32" x="451.211" y="-300.64" fill="none" rx="0" ry="0" transform="translate(229.13 366.87)"/></g><path fill="transparent" stroke="transparent" d="M660.5 0h679v151h-679z"/></g></svg>